<svg xmlns="http://www.w3.org/2000/svg" xmlns:xlink="http://www.w3.org/1999/xlink" width="80" zoomAndPan="magnify" viewBox="0 0 60 60" height="80" preserveAspectRatio="xMidYMid meet" version="1.0"><path fill="#fae978" d="M 60 29.984375 C 60 30.96875 59.953125 31.949219 59.855469 32.925781 C 59.757812 33.902344 59.617188 34.875 59.421875 35.835938 C 59.230469 36.800781 58.992188 37.753906 58.707031 38.691406 C 58.421875 39.632812 58.09375 40.558594 57.714844 41.464844 C 57.339844 42.371094 56.921875 43.257812 56.457031 44.125 C 55.996094 44.992188 55.492188 45.832031 54.945312 46.652344 C 54.398438 47.46875 53.8125 48.253906 53.191406 49.015625 C 52.566406 49.773438 51.910156 50.5 51.214844 51.195312 C 50.519531 51.890625 49.792969 52.550781 49.03125 53.171875 C 48.273438 53.796875 47.484375 54.382812 46.667969 54.925781 C 45.851562 55.472656 45.007812 55.976562 44.144531 56.441406 C 43.277344 56.902344 42.390625 57.324219 41.480469 57.699219 C 40.574219 58.074219 39.652344 58.40625 38.710938 58.691406 C 37.769531 58.976562 36.816406 59.214844 35.855469 59.40625 C 34.890625 59.597656 33.921875 59.742188 32.941406 59.835938 C 31.964844 59.933594 30.984375 59.980469 30.003906 59.980469 C 29.019531 59.980469 28.039062 59.933594 27.0625 59.835938 C 26.085938 59.742188 25.113281 59.597656 24.148438 59.40625 C 23.1875 59.214844 22.234375 58.976562 21.292969 58.691406 C 20.355469 58.40625 19.429688 58.074219 18.523438 57.699219 C 17.617188 57.324219 16.726562 56.902344 15.863281 56.441406 C 14.996094 55.976562 14.152344 55.472656 13.335938 54.925781 C 12.519531 54.382812 11.730469 53.796875 10.972656 53.171875 C 10.210938 52.550781 9.484375 51.890625 8.792969 51.195312 C 8.097656 50.5 7.4375 49.773438 6.8125 49.015625 C 6.191406 48.253906 5.605469 47.46875 5.058594 46.652344 C 4.515625 45.832031 4.011719 44.992188 3.546875 44.125 C 3.085938 43.257812 2.664062 42.371094 2.289062 41.464844 C 1.914062 40.558594 1.582031 39.632812 1.296875 38.691406 C 1.011719 37.753906 0.773438 36.800781 0.582031 35.835938 C 0.390625 34.875 0.246094 33.902344 0.148438 32.925781 C 0.0546875 31.949219 0.00390625 30.96875 0.00390625 29.984375 C 0.00390625 29.003906 0.0546875 28.023438 0.148438 27.042969 C 0.246094 26.066406 0.390625 25.097656 0.582031 24.132812 C 0.773438 23.167969 1.011719 22.21875 1.296875 21.277344 C 1.582031 20.335938 1.914062 19.414062 2.289062 18.503906 C 2.664062 17.597656 3.085938 16.710938 3.546875 15.84375 C 4.011719 14.976562 4.515625 14.136719 5.058594 13.320312 C 5.605469 12.503906 6.191406 11.714844 6.8125 10.953125 C 7.4375 10.195312 8.097656 9.46875 8.792969 8.773438 C 9.484375 8.078125 10.210938 7.417969 10.972656 6.796875 C 11.730469 6.171875 12.519531 5.589844 13.335938 5.042969 C 14.152344 4.496094 14.996094 3.992188 15.863281 3.53125 C 16.726562 3.066406 17.617188 2.648438 18.523438 2.269531 C 19.429688 1.894531 20.355469 1.5625 21.292969 1.277344 C 22.234375 0.992188 23.1875 0.753906 24.148438 0.5625 C 25.113281 0.371094 26.085938 0.226562 27.0625 0.132812 C 28.039062 0.0351562 29.019531 -0.0117188 30.003906 -0.0117188 C 30.984375 -0.0117188 31.964844 0.0351562 32.941406 0.132812 C 33.921875 0.226562 34.890625 0.371094 35.855469 0.5625 C 36.816406 0.753906 37.769531 0.992188 38.710938 1.277344 C 39.652344 1.5625 40.574219 1.894531 41.480469 2.269531 C 42.390625 2.648438 43.277344 3.066406 44.144531 3.53125 C 45.007812 3.992188 45.851562 4.496094 46.667969 5.042969 C 47.484375 5.589844 48.273438 6.171875 49.03125 6.796875 C 49.792969 7.417969 50.519531 8.078125 51.214844 8.773438 C 51.910156 9.46875 52.566406 10.195312 53.191406 10.953125 C 53.8125 11.714844 54.398438 12.503906 54.945312 13.320312 C 55.492188 14.136719 55.996094 14.976562 56.457031 15.84375 C 56.921875 16.710938 57.339844 17.597656 57.714844 18.503906 C 58.09375 19.414062 58.421875 20.335938 58.707031 21.277344 C 58.992188 22.21875 59.230469 23.167969 59.421875 24.132812 C 59.617188 25.097656 59.757812 26.066406 59.855469 27.042969 C 59.953125 28.023438 60 29.003906 60 29.984375 Z M 60 29.984375 " fill-opacity="1" fill-rule="nonzero"/><path fill="#020202" d="M 21.925781 27.804688 C 21.90625 28.96875 21.5625 30.003906 20.753906 30.863281 C 19.507812 32.179688 17.597656 32.195312 16.328125 30.894531 C 14.722656 29.25 14.726562 26.34375 16.335938 24.707031 C 17.605469 23.410156 19.511719 23.421875 20.757812 24.75 C 21.570312 25.605469 21.910156 26.644531 21.925781 27.804688 Z M 21.925781 27.804688 " fill-opacity="1" fill-rule="nonzero"/><path fill="#020202" d="M 37.511719 27.789062 C 37.515625 26.625 37.875 25.589844 38.683594 24.734375 C 39.917969 23.433594 41.808594 23.414062 43.070312 24.675781 C 44.703125 26.3125 44.710938 29.257812 43.085938 30.90625 C 41.828125 32.183594 39.945312 32.175781 38.695312 30.886719 C 37.925781 30.09375 37.511719 29.007812 37.511719 27.789062 Z M 37.511719 27.789062 " fill-opacity="1" fill-rule="nonzero"/><path fill="#040404" d="M 18.535156 14.894531 C 16.910156 14.921875 15.339844 15.175781 13.84375 15.832031 C 13.089844 16.164062 12.390625 16.582031 11.792969 17.160156 C 11.390625 17.546875 10.96875 17.917969 10.464844 18.167969 C 10.195312 18.300781 9.894531 18.441406 9.644531 18.171875 C 9.410156 17.921875 9.382812 17.585938 9.550781 17.292969 C 10.980469 14.789062 12.964844 13.027344 15.921875 12.617188 C 17.753906 12.363281 19.484375 12.78125 21.175781 13.460938 C 21.542969 13.605469 21.691406 13.867188 21.691406 14.222656 C 21.691406 14.59375 21.476562 14.828125 21.128906 14.960938 C 20.875 15.054688 20.621094 15.0625 20.355469 15.039062 C 19.75 14.980469 19.140625 14.9375 18.535156 14.894531 Z M 18.535156 14.894531 " fill-opacity="1" fill-rule="nonzero"/><path fill="#040404" d="M 39.769531 14.9375 C 39.085938 14.917969 38.410156 15.003906 37.730469 15.046875 C 36.941406 15.097656 36.484375 14.605469 36.648438 13.960938 C 36.703125 13.734375 36.820312 13.605469 37.03125 13.511719 C 41.53125 11.539062 45.996094 12.519531 48.675781 17.152344 C 48.878906 17.503906 48.925781 17.875 48.652344 18.171875 C 48.367188 18.476562 48.027344 18.28125 47.746094 18.117188 C 47.445312 17.9375 47.144531 17.746094 46.902344 17.503906 C 45.128906 15.738281 42.917969 15.085938 40.5 14.9375 C 40.257812 14.925781 40.011719 14.9375 39.769531 14.9375 Z M 39.769531 14.9375 " fill-opacity="1" fill-rule="nonzero"/><path fill="#040404" d="M 34.003906 41.796875 C 34.644531 41.558594 35.238281 41.226562 35.847656 40.929688 C 36.558594 40.585938 37.167969 40.863281 37.261719 41.523438 C 37.292969 41.753906 37.238281 41.921875 37.078125 42.085938 C 33.652344 45.613281 29.152344 46.386719 24.917969 43.109375 C 24.597656 42.863281 24.414062 42.539062 24.554688 42.15625 C 24.703125 41.765625 25.09375 41.816406 25.414062 41.867188 C 25.757812 41.917969 26.109375 41.980469 26.429688 42.117188 C 28.734375 43.082031 31.03125 42.847656 33.324219 42.074219 C 33.554688 41.996094 33.777344 41.890625 34.003906 41.796875 Z M 34.003906 41.796875 " fill-opacity="1" fill-rule="nonzero"/></svg>