<svg xmlns="http://www.w3.org/2000/svg" xmlns:xlink="http://www.w3.org/1999/xlink" width="80" zoomAndPan="magnify" viewBox="0 0 60 60" height="80" preserveAspectRatio="xMidYMid meet" version="1.0"><path fill="#ffdf5a" d="M 60 30 C 60 46.570312 46.570312 60 30 60 C 13.429688 60 0 46.570312 0 30 C 0 13.429688 13.429688 0 30 0 C 46.570312 0 60 13.429688 60 30 " fill-opacity="1" fill-rule="nonzero"/><path fill="#705a00" d="M 21.03125 26.585938 C 21.03125 24.941406 19.699219 23.609375 18.054688 23.609375 C 16.40625 23.609375 15.074219 24.941406 15.074219 26.585938 C 15.074219 28.230469 16.40625 29.566406 18.054688 29.566406 C 19.699219 29.566406 21.03125 28.230469 21.03125 26.585938 " fill-opacity="1" fill-rule="nonzero"/><path fill="#705a00" d="M 41.945312 23.609375 C 40.300781 23.609375 38.96875 24.941406 38.96875 26.585938 C 38.96875 28.230469 40.300781 29.566406 41.945312 29.566406 C 43.59375 29.566406 44.925781 28.230469 44.925781 26.585938 C 44.925781 24.941406 43.59375 23.609375 41.945312 23.609375 " fill-opacity="1" fill-rule="nonzero"/><path fill="#705a00" d="M 41.945312 40.90625 L 18.054688 40.90625 C 17.582031 40.90625 17.199219 41.289062 17.199219 41.761719 C 17.199219 42.230469 17.582031 42.613281 18.054688 42.613281 L 41.945312 42.613281 C 42.417969 42.613281 42.800781 42.230469 42.800781 41.761719 C 42.800781 41.289062 42.417969 40.90625 41.945312 40.90625 " fill-opacity="1" fill-rule="nonzero"/></svg>