<svg xmlns="http://www.w3.org/2000/svg" xmlns:xlink="http://www.w3.org/1999/xlink" width="80" zoomAndPan="magnify" viewBox="0 0 60 60" height="80" preserveAspectRatio="xMidYMid meet" version="1.0"><path fill="#f5db48" d="M 30 0 C 46.566406 0 60 13.433594 60 30 C 60 46.566406 46.566406 60 30 60 C 13.433594 60 0 46.566406 0 30 C 0 13.433594 13.433594 0 30 0 Z M 30 0 " fill-opacity="1" fill-rule="nonzero"/><path fill="#5d3f3f" d="M 16.71875 39.269531 C 17.800781 42.566406 20.070312 45.304688 23.011719 47.011719 L 36.976562 47.011719 C 39.929688 45.304688 42.1875 42.554688 43.269531 39.269531 C 43.480469 38.613281 43.660156 37.929688 43.777344 37.234375 L 30.351562 36.058594 L 16.222656 37.234375 C 16.339844 37.929688 16.507812 38.613281 16.71875 39.269531 Z M 16.71875 39.269531 " fill-opacity="1" fill-rule="nonzero"/><path fill="#f8f2f2" d="M 16.023438 34.90625 C 16.023438 35.707031 16.09375 36.480469 16.222656 37.234375 L 43.789062 37.234375 C 43.917969 36.46875 43.988281 35.695312 43.988281 34.90625 Z M 16.023438 34.90625 " fill-opacity="1" fill-rule="nonzero"/><path fill="#de5959" d="M 30 42.765625 C 33.035156 42.765625 35.671875 44.492188 36.976562 47.011719 C 34.917969 48.199219 32.542969 48.882812 30 48.882812 C 27.457031 48.882812 25.070312 48.199219 23.023438 47.011719 C 24.328125 44.480469 26.964844 42.765625 30 42.765625 Z M 30 42.765625 " fill-opacity="1" fill-rule="nonzero"/><path fill="#de5959" d="M 48.234375 17.929688 C 49.433594 19.648438 49 22.011719 47.28125 23.210938 L 45.625 24.363281 L 39.683594 28.492188 L 35.660156 22.46875 L 34.542969 20.800781 C 33.375 19.058594 33.847656 16.707031 35.589844 15.542969 C 36.445312 14.964844 37.457031 14.789062 38.398438 14.964844 C 39.363281 15.152344 40.257812 15.707031 40.847656 16.589844 L 41.695312 17.859375 L 42.953125 16.988281 C 43.824219 16.386719 44.859375 16.199219 45.824219 16.375 C 46.777344 16.542969 47.648438 17.070312 48.234375 17.929688 Z M 48.234375 17.929688 " fill-opacity="1" fill-rule="nonzero"/><path fill="#de5959" d="M 24.410156 15.519531 C 26.152344 16.683594 26.625 19.035156 25.457031 20.777344 L 24.339844 22.445312 L 20.316406 28.46875 L 14.363281 24.351562 L 12.707031 23.199219 C 10.988281 22.011719 10.554688 19.636719 11.753906 17.917969 C 12.339844 17.070312 13.222656 16.53125 14.164062 16.351562 C 15.128906 16.164062 16.164062 16.363281 17.035156 16.964844 L 18.292969 17.835938 L 19.140625 16.566406 C 19.730469 15.683594 20.625 15.128906 21.589844 14.941406 C 22.542969 14.777344 23.542969 14.953125 24.410156 15.519531 Z M 24.410156 15.519531 " fill-opacity="1" fill-rule="nonzero"/></svg>