<svg xmlns="http://www.w3.org/2000/svg" xmlns:xlink="http://www.w3.org/1999/xlink" width="80" zoomAndPan="magnify" viewBox="0 0 60 60" height="80" preserveAspectRatio="xMidYMid meet" version="1.0"><defs><clipPath id="cb9d0605e5"><path d="M 35 17 L 44 17 L 44 26 L 35 26 Z M 35 17 " clip-rule="nonzero"/></clipPath><clipPath id="ff3a69cf48"><path d="M 43.457031 21.941406 C 43.457031 22.203125 43.433594 22.464844 43.382812 22.722656 C 43.332031 22.980469 43.253906 23.230469 43.15625 23.472656 C 43.054688 23.714844 42.929688 23.945312 42.785156 24.164062 C 42.640625 24.382812 42.472656 24.582031 42.289062 24.769531 C 42.101562 24.957031 41.898438 25.121094 41.679688 25.265625 C 41.460938 25.414062 41.230469 25.535156 40.988281 25.636719 C 40.746094 25.738281 40.496094 25.8125 40.238281 25.863281 C 39.980469 25.914062 39.722656 25.941406 39.457031 25.941406 C 39.195312 25.941406 38.9375 25.914062 38.679688 25.863281 C 38.421875 25.8125 38.171875 25.738281 37.929688 25.636719 C 37.683594 25.535156 37.453125 25.414062 37.238281 25.265625 C 37.019531 25.121094 36.816406 24.957031 36.628906 24.769531 C 36.445312 24.582031 36.277344 24.382812 36.132812 24.164062 C 35.988281 23.945312 35.863281 23.714844 35.761719 23.472656 C 35.664062 23.230469 35.585938 22.980469 35.535156 22.722656 C 35.484375 22.464844 35.457031 22.203125 35.457031 21.941406 C 35.457031 21.679688 35.484375 21.417969 35.535156 21.160156 C 35.585938 20.902344 35.664062 20.652344 35.761719 20.410156 C 35.863281 20.167969 35.988281 19.9375 36.132812 19.71875 C 36.277344 19.5 36.445312 19.296875 36.628906 19.113281 C 36.816406 18.925781 37.019531 18.761719 37.238281 18.617188 C 37.453125 18.46875 37.683594 18.347656 37.929688 18.246094 C 38.171875 18.144531 38.421875 18.070312 38.679688 18.019531 C 38.9375 17.96875 39.195312 17.941406 39.457031 17.941406 C 39.722656 17.941406 39.980469 17.96875 40.238281 18.019531 C 40.496094 18.070312 40.746094 18.144531 40.988281 18.246094 C 41.230469 18.347656 41.460938 18.46875 41.679688 18.617188 C 41.898438 18.761719 42.101562 18.925781 42.289062 19.113281 C 42.472656 19.296875 42.640625 19.5 42.785156 19.71875 C 42.929688 19.9375 43.054688 20.167969 43.15625 20.410156 C 43.253906 20.652344 43.332031 20.902344 43.382812 21.160156 C 43.433594 21.417969 43.457031 21.679688 43.457031 21.941406 Z M 43.457031 21.941406 " clip-rule="nonzero"/></clipPath><radialGradient gradientTransform="matrix(1, 0, 0, -1, -0.117647, 60.117655)" gradientUnits="userSpaceOnUse" r="4" cx="39.571766" id="36a749da0a" cy="38.176473" fx="39.571766" fy="38.176473"><stop stop-opacity="1" stop-color="rgb(8.753967%, 7.984924%, 7.984924%)" offset="0"/><stop stop-opacity="1" stop-color="rgb(9.054565%, 8.345032%, 8.345032%)" offset="0.0625"/><stop stop-opacity="1" stop-color="rgb(9.335327%, 8.682251%, 8.682251%)" offset="0.121094"/><stop stop-opacity="1" stop-color="rgb(9.596252%, 8.996582%, 8.996582%)" offset="0.175781"/><stop stop-opacity="1" stop-color="rgb(9.838867%, 9.288025%, 9.288025%)" offset="0.226562"/><stop stop-opacity="1" stop-color="rgb(10.063171%, 9.555054%, 9.555054%)" offset="0.273438"/><stop stop-opacity="1" stop-color="rgb(10.266113%, 9.799194%, 9.799194%)" offset="0.316406"/><stop stop-opacity="1" stop-color="rgb(10.4599%, 10.032654%, 10.032654%)" offset="0.355469"/><stop stop-opacity="1" stop-color="rgb(10.736084%, 10.331726%, 10.331726%)" offset="0.394531"/><stop stop-opacity="1" stop-color="rgb(11.00769%, 10.60791%, 10.60791%)" offset="0.429688"/><stop stop-opacity="1" stop-color="rgb(11.2854%, 10.88562%, 10.88562%)" offset="0.445312"/><stop stop-opacity="1" stop-color="rgb(11.656189%, 11.256409%, 11.256409%)" offset="0.476562"/><stop stop-opacity="1" stop-color="rgb(12.004089%, 11.604309%, 11.604309%)" offset="0.507812"/><stop stop-opacity="1" stop-color="rgb(12.329102%, 11.929321%, 11.929321%)" offset="0.535156"/><stop stop-opacity="1" stop-color="rgb(12.654114%, 12.252808%, 12.252808%)" offset="0.5625"/><stop stop-opacity="1" stop-color="rgb(12.954712%, 12.554932%, 12.554932%)" offset="0.589844"/><stop stop-opacity="1" stop-color="rgb(13.232422%, 12.832642%, 12.832642%)" offset="0.613281"/><stop stop-opacity="1" stop-color="rgb(13.487244%, 13.087463%, 13.087463%)" offset="0.636719"/><stop stop-opacity="1" stop-color="rgb(13.719177%, 13.319397%, 13.319397%)" offset="0.65625"/><stop stop-opacity="1" stop-color="rgb(13.951111%, 13.551331%, 13.551331%)" offset="0.675781"/><stop stop-opacity="1" stop-color="rgb(14.160156%, 13.760376%, 13.760376%)" offset="0.695312"/><stop stop-opacity="1" stop-color="rgb(14.344788%, 13.945007%, 13.945007%)" offset="0.710938"/><stop stop-opacity="1" stop-color="rgb(14.622498%, 14.222717%, 14.222717%)" offset="0.726562"/><stop stop-opacity="1" stop-color="rgb(14.970398%, 14.570618%, 14.570618%)" offset="0.757812"/><stop stop-opacity="1" stop-color="rgb(15.272522%, 14.872742%, 14.872742%)" offset="0.785156"/><stop stop-opacity="1" stop-color="rgb(15.550232%, 15.150452%, 15.150452%)" offset="0.808594"/><stop stop-opacity="1" stop-color="rgb(15.805054%, 15.405273%, 15.405273%)" offset="0.832031"/><stop stop-opacity="1" stop-color="rgb(16.014099%, 15.612793%, 15.612793%)" offset="0.851562"/><stop stop-opacity="1" stop-color="rgb(16.291809%, 15.890503%, 15.890503%)" offset="0.867188"/><stop stop-opacity="1" stop-color="rgb(16.616821%, 16.215515%, 16.215515%)" offset="0.898438"/><stop stop-opacity="1" stop-color="rgb(16.867065%, 16.488647%, 16.488647%)" offset="0.921875"/><stop stop-opacity="1" stop-color="rgb(17.03949%, 16.720581%, 16.720581%)" offset="0.941406"/><stop stop-opacity="1" stop-color="rgb(17.225647%, 17.01355%, 17.01355%)" offset="0.953125"/><stop stop-opacity="1" stop-color="rgb(17.474365%, 17.404175%, 17.404175%)" offset="0.976562"/><stop stop-opacity="1" stop-color="rgb(17.599487%, 17.599487%, 17.599487%)" offset="1"/></radialGradient><clipPath id="446012bab1"><path d="M 16 17 L 25 17 L 25 26 L 16 26 Z M 16 17 " clip-rule="nonzero"/></clipPath><clipPath id="809e0b183e"><path d="M 24.542969 21.941406 C 24.542969 22.203125 24.515625 22.464844 24.464844 22.722656 C 24.414062 22.980469 24.335938 23.230469 24.238281 23.472656 C 24.136719 23.714844 24.011719 23.945312 23.867188 24.164062 C 23.722656 24.382812 23.554688 24.582031 23.371094 24.769531 C 23.183594 24.957031 22.980469 25.121094 22.761719 25.265625 C 22.546875 25.414062 22.316406 25.535156 22.070312 25.636719 C 21.828125 25.738281 21.578125 25.8125 21.320312 25.863281 C 21.0625 25.914062 20.804688 25.941406 20.542969 25.941406 C 20.277344 25.941406 20.019531 25.914062 19.761719 25.863281 C 19.503906 25.8125 19.253906 25.738281 19.011719 25.636719 C 18.769531 25.535156 18.539062 25.414062 18.320312 25.265625 C 18.101562 25.121094 17.898438 24.957031 17.710938 24.769531 C 17.527344 24.582031 17.359375 24.382812 17.214844 24.164062 C 17.070312 23.945312 16.945312 23.714844 16.84375 23.472656 C 16.746094 23.230469 16.667969 22.980469 16.617188 22.722656 C 16.566406 22.464844 16.542969 22.203125 16.542969 21.941406 C 16.542969 21.679688 16.566406 21.417969 16.617188 21.160156 C 16.667969 20.902344 16.746094 20.652344 16.84375 20.410156 C 16.945312 20.167969 17.070312 19.9375 17.214844 19.71875 C 17.359375 19.5 17.527344 19.296875 17.710938 19.113281 C 17.898438 18.925781 18.101562 18.761719 18.320312 18.617188 C 18.539062 18.46875 18.769531 18.347656 19.011719 18.246094 C 19.253906 18.144531 19.503906 18.070312 19.761719 18.019531 C 20.019531 17.96875 20.277344 17.941406 20.542969 17.941406 C 20.804688 17.941406 21.0625 17.96875 21.320312 18.019531 C 21.578125 18.070312 21.828125 18.144531 22.070312 18.246094 C 22.316406 18.347656 22.546875 18.46875 22.761719 18.617188 C 22.980469 18.761719 23.183594 18.925781 23.371094 19.113281 C 23.554688 19.296875 23.722656 19.5 23.867188 19.71875 C 24.011719 19.9375 24.136719 20.167969 24.238281 20.410156 C 24.335938 20.652344 24.414062 20.902344 24.464844 21.160156 C 24.515625 21.417969 24.542969 21.679688 24.542969 21.941406 Z M 24.542969 21.941406 " clip-rule="nonzero"/></clipPath><radialGradient gradientTransform="matrix(1, 0, 0, -1, -0.117647, 60.117655)" gradientUnits="userSpaceOnUse" r="4" cx="20.663531" id="19919ff256" cy="38.176473" fx="20.663531" fy="38.176473"><stop stop-opacity="1" stop-color="rgb(8.753967%, 7.984924%, 7.984924%)" offset="0"/><stop stop-opacity="1" stop-color="rgb(9.054565%, 8.345032%, 8.345032%)" offset="0.0625"/><stop stop-opacity="1" stop-color="rgb(9.335327%, 8.682251%, 8.682251%)" offset="0.121094"/><stop stop-opacity="1" stop-color="rgb(9.596252%, 8.996582%, 8.996582%)" offset="0.175781"/><stop stop-opacity="1" stop-color="rgb(9.838867%, 9.288025%, 9.288025%)" offset="0.226562"/><stop stop-opacity="1" stop-color="rgb(10.063171%, 9.555054%, 9.555054%)" offset="0.273438"/><stop stop-opacity="1" stop-color="rgb(10.266113%, 9.799194%, 9.799194%)" offset="0.316406"/><stop stop-opacity="1" stop-color="rgb(10.4599%, 10.032654%, 10.032654%)" offset="0.355469"/><stop stop-opacity="1" stop-color="rgb(10.736084%, 10.331726%, 10.331726%)" offset="0.394531"/><stop stop-opacity="1" stop-color="rgb(11.00769%, 10.60791%, 10.60791%)" offset="0.429688"/><stop stop-opacity="1" stop-color="rgb(11.2854%, 10.88562%, 10.88562%)" offset="0.445312"/><stop stop-opacity="1" stop-color="rgb(11.656189%, 11.256409%, 11.256409%)" offset="0.476562"/><stop stop-opacity="1" stop-color="rgb(12.004089%, 11.604309%, 11.604309%)" offset="0.507812"/><stop stop-opacity="1" stop-color="rgb(12.329102%, 11.929321%, 11.929321%)" offset="0.535156"/><stop stop-opacity="1" stop-color="rgb(12.654114%, 12.252808%, 12.252808%)" offset="0.5625"/><stop stop-opacity="1" stop-color="rgb(12.954712%, 12.554932%, 12.554932%)" offset="0.589844"/><stop stop-opacity="1" stop-color="rgb(13.232422%, 12.832642%, 12.832642%)" offset="0.613281"/><stop stop-opacity="1" stop-color="rgb(13.487244%, 13.087463%, 13.087463%)" offset="0.636719"/><stop stop-opacity="1" stop-color="rgb(13.719177%, 13.319397%, 13.319397%)" offset="0.65625"/><stop stop-opacity="1" stop-color="rgb(13.951111%, 13.551331%, 13.551331%)" offset="0.675781"/><stop stop-opacity="1" stop-color="rgb(14.160156%, 13.760376%, 13.760376%)" offset="0.695312"/><stop stop-opacity="1" stop-color="rgb(14.344788%, 13.945007%, 13.945007%)" offset="0.710938"/><stop stop-opacity="1" stop-color="rgb(14.622498%, 14.222717%, 14.222717%)" offset="0.726562"/><stop stop-opacity="1" stop-color="rgb(14.970398%, 14.570618%, 14.570618%)" offset="0.757812"/><stop stop-opacity="1" stop-color="rgb(15.272522%, 14.872742%, 14.872742%)" offset="0.785156"/><stop stop-opacity="1" stop-color="rgb(15.550232%, 15.150452%, 15.150452%)" offset="0.808594"/><stop stop-opacity="1" stop-color="rgb(15.805054%, 15.405273%, 15.405273%)" offset="0.832031"/><stop stop-opacity="1" stop-color="rgb(16.014099%, 15.612793%, 15.612793%)" offset="0.851562"/><stop stop-opacity="1" stop-color="rgb(16.291809%, 15.890503%, 15.890503%)" offset="0.867188"/><stop stop-opacity="1" stop-color="rgb(16.616821%, 16.215515%, 16.215515%)" offset="0.898438"/><stop stop-opacity="1" stop-color="rgb(16.867065%, 16.488647%, 16.488647%)" offset="0.921875"/><stop stop-opacity="1" stop-color="rgb(17.03949%, 16.720581%, 16.720581%)" offset="0.941406"/><stop stop-opacity="1" stop-color="rgb(17.225647%, 17.01355%, 17.01355%)" offset="0.953125"/><stop stop-opacity="1" stop-color="rgb(17.474365%, 17.404175%, 17.404175%)" offset="0.976562"/><stop stop-opacity="1" stop-color="rgb(17.599487%, 17.599487%, 17.599487%)" offset="1"/></radialGradient></defs><path fill="#f5db48" d="M 30 0 C 46.566406 0 60 13.433594 60 30 C 60 46.566406 46.566406 60 30 60 C 13.433594 60 0 46.566406 0 30 C 0 13.433594 13.433594 0 30 0 Z M 30 0 " fill-opacity="1" fill-rule="nonzero"/><path fill="#de5959" d="M 44.117188 43.589844 L 15.882812 43.589844 C 17.386719 37.023438 23.269531 32.117188 30 32.117188 C 36.730469 32.117188 42.625 37.023438 44.117188 43.589844 Z M 44.117188 43.589844 " fill-opacity="1" fill-rule="nonzero"/><g clip-path="url(#cb9d0605e5)"><g clip-path="url(#ff3a69cf48)"><path fill="url(#36a749da0a)" d="M 35.457031 25.941406 L 35.457031 17.941406 L 43.457031 17.941406 L 43.457031 25.941406 Z M 35.457031 25.941406 " fill-rule="nonzero"/></g></g><g clip-path="url(#446012bab1)"><g clip-path="url(#809e0b183e)"><path fill="url(#19919ff256)" d="M 16.542969 25.941406 L 16.542969 17.941406 L 24.542969 17.941406 L 24.542969 25.941406 Z M 16.542969 25.941406 " fill-rule="nonzero"/></g></g></svg>