<svg xmlns="http://www.w3.org/2000/svg" xmlns:xlink="http://www.w3.org/1999/xlink" width="80" zoomAndPan="magnify" viewBox="0 0 60 60" height="80" preserveAspectRatio="xMidYMid meet" version="1.0"><path fill="#f5db48" d="M 30 0 C 46.566406 0 60 13.433594 60 30 C 60 46.566406 46.566406 60 30 60 C 13.433594 60 0 46.566406 0 30 C 0 13.433594 13.433594 0 30 0 Z M 30 0 " fill-opacity="1" fill-rule="nonzero"/><path fill="#de5959" d="M 30 48.53125 C 35.917969 48.53125 41.1875 44.730469 43.386719 39.351562 L 30 38.175781 L 16.613281 39.351562 C 18.8125 44.730469 24.082031 48.53125 30 48.53125 Z M 30 48.53125 " fill-opacity="1" fill-rule="nonzero"/><path fill="#f8f2f2" d="M 15.882812 37.058594 C 16.058594 37.847656 16.304688 38.613281 16.613281 39.351562 L 43.386719 39.351562 C 43.695312 38.613281 43.929688 37.847656 44.117188 37.058594 Z M 15.882812 37.058594 " fill-opacity="1" fill-rule="nonzero"/><path fill="#5d3f3f" d="M 48.53125 28.53125 C 47.882812 28.53125 47.351562 28 47.351562 27.351562 C 47.351562 24.351562 44.917969 21.90625 41.90625 21.90625 C 38.894531 21.90625 36.46875 24.351562 36.46875 27.351562 C 36.46875 28 35.941406 28.53125 35.292969 28.53125 C 34.648438 28.53125 34.117188 28 34.117188 27.351562 C 34.117188 23.058594 37.613281 19.554688 41.917969 19.554688 C 46.222656 19.554688 49.71875 23.046875 49.71875 27.351562 C 49.707031 28 49.175781 28.53125 48.53125 28.53125 Z M 48.53125 28.53125 " fill-opacity="1" fill-rule="nonzero"/><path fill="#5d3f3f" d="M 24.707031 28.53125 C 24.058594 28.53125 23.53125 28 23.53125 27.351562 C 23.53125 24.351562 21.09375 21.90625 18.082031 21.90625 C 15.070312 21.90625 12.636719 24.339844 12.636719 27.351562 C 12.636719 28 12.105469 28.53125 11.457031 28.53125 C 10.8125 28.53125 10.28125 28 10.28125 27.351562 C 10.28125 23.058594 13.777344 19.554688 18.082031 19.554688 C 22.386719 19.554688 25.882812 23.058594 25.882812 27.351562 C 25.882812 28 25.351562 28.53125 24.707031 28.53125 Z M 24.707031 28.53125 " fill-opacity="1" fill-rule="nonzero"/></svg>