<svg xmlns="http://www.w3.org/2000/svg" xmlns:xlink="http://www.w3.org/1999/xlink" width="80" zoomAndPan="magnify" viewBox="0 0 60 60" height="80" preserveAspectRatio="xMidYMid meet" version="1.0"><defs><clipPath id="5feadcbbea"><path d="M 35 19 L 44 19 L 44 28 L 35 28 Z M 35 19 " clip-rule="nonzero"/></clipPath><clipPath id="99118de480"><path d="M 43.457031 23.117188 C 43.457031 23.378906 43.433594 23.640625 43.382812 23.898438 C 43.332031 24.15625 43.253906 24.40625 43.15625 24.648438 C 43.054688 24.890625 42.929688 25.121094 42.785156 25.339844 C 42.640625 25.558594 42.472656 25.761719 42.289062 25.945312 C 42.101562 26.132812 41.898438 26.296875 41.679688 26.445312 C 41.460938 26.589844 41.230469 26.710938 40.988281 26.8125 C 40.746094 26.914062 40.496094 26.988281 40.238281 27.039062 C 39.980469 27.09375 39.722656 27.117188 39.457031 27.117188 C 39.195312 27.117188 38.9375 27.09375 38.679688 27.039062 C 38.421875 26.988281 38.171875 26.914062 37.929688 26.8125 C 37.683594 26.710938 37.453125 26.589844 37.238281 26.445312 C 37.019531 26.296875 36.816406 26.132812 36.628906 25.945312 C 36.445312 25.761719 36.277344 25.558594 36.132812 25.339844 C 35.988281 25.121094 35.863281 24.890625 35.761719 24.648438 C 35.664062 24.40625 35.585938 24.15625 35.535156 23.898438 C 35.484375 23.640625 35.457031 23.378906 35.457031 23.117188 C 35.457031 22.855469 35.484375 22.59375 35.535156 22.335938 C 35.585938 22.078125 35.664062 21.828125 35.761719 21.585938 C 35.863281 21.34375 35.988281 21.113281 36.132812 20.894531 C 36.277344 20.675781 36.445312 20.476562 36.628906 20.289062 C 36.816406 20.101562 37.019531 19.9375 37.238281 19.792969 C 37.453125 19.644531 37.683594 19.523438 37.929688 19.421875 C 38.171875 19.320312 38.421875 19.246094 38.679688 19.195312 C 38.9375 19.144531 39.195312 19.117188 39.457031 19.117188 C 39.722656 19.117188 39.980469 19.144531 40.238281 19.195312 C 40.496094 19.246094 40.746094 19.320312 40.988281 19.421875 C 41.230469 19.523438 41.460938 19.644531 41.679688 19.792969 C 41.898438 19.9375 42.101562 20.101562 42.289062 20.289062 C 42.472656 20.476562 42.640625 20.675781 42.785156 20.894531 C 42.929688 21.113281 43.054688 21.34375 43.15625 21.585938 C 43.253906 21.828125 43.332031 22.078125 43.382812 22.335938 C 43.433594 22.59375 43.457031 22.855469 43.457031 23.117188 Z M 43.457031 23.117188 " clip-rule="nonzero"/></clipPath><radialGradient gradientTransform="matrix(1, 0, 0, -1, -0.117647, 60.117655)" gradientUnits="userSpaceOnUse" r="4" cx="39.571766" id="0ad27145ef" cy="37.000003" fx="39.571766" fy="37.000003"><stop stop-opacity="1" stop-color="rgb(8.753967%, 7.984924%, 7.984924%)" offset="0"/><stop stop-opacity="1" stop-color="rgb(9.054565%, 8.345032%, 8.345032%)" offset="0.0625"/><stop stop-opacity="1" stop-color="rgb(9.335327%, 8.682251%, 8.682251%)" offset="0.121094"/><stop stop-opacity="1" stop-color="rgb(9.596252%, 8.996582%, 8.996582%)" offset="0.175781"/><stop stop-opacity="1" stop-color="rgb(9.838867%, 9.288025%, 9.288025%)" offset="0.226562"/><stop stop-opacity="1" stop-color="rgb(10.063171%, 9.555054%, 9.555054%)" offset="0.273438"/><stop stop-opacity="1" stop-color="rgb(10.266113%, 9.799194%, 9.799194%)" offset="0.316406"/><stop stop-opacity="1" stop-color="rgb(10.4599%, 10.032654%, 10.032654%)" offset="0.355469"/><stop stop-opacity="1" stop-color="rgb(10.736084%, 10.331726%, 10.331726%)" offset="0.394531"/><stop stop-opacity="1" stop-color="rgb(11.00769%, 10.60791%, 10.60791%)" offset="0.429688"/><stop stop-opacity="1" stop-color="rgb(11.2854%, 10.88562%, 10.88562%)" offset="0.445312"/><stop stop-opacity="1" stop-color="rgb(11.656189%, 11.256409%, 11.256409%)" offset="0.476562"/><stop stop-opacity="1" stop-color="rgb(12.004089%, 11.604309%, 11.604309%)" offset="0.507812"/><stop stop-opacity="1" stop-color="rgb(12.329102%, 11.929321%, 11.929321%)" offset="0.535156"/><stop stop-opacity="1" stop-color="rgb(12.654114%, 12.252808%, 12.252808%)" offset="0.5625"/><stop stop-opacity="1" stop-color="rgb(12.954712%, 12.554932%, 12.554932%)" offset="0.589844"/><stop stop-opacity="1" stop-color="rgb(13.232422%, 12.832642%, 12.832642%)" offset="0.613281"/><stop stop-opacity="1" stop-color="rgb(13.487244%, 13.087463%, 13.087463%)" offset="0.636719"/><stop stop-opacity="1" stop-color="rgb(13.719177%, 13.319397%, 13.319397%)" offset="0.65625"/><stop stop-opacity="1" stop-color="rgb(13.951111%, 13.551331%, 13.551331%)" offset="0.675781"/><stop stop-opacity="1" stop-color="rgb(14.160156%, 13.760376%, 13.760376%)" offset="0.695312"/><stop stop-opacity="1" stop-color="rgb(14.344788%, 13.945007%, 13.945007%)" offset="0.710938"/><stop stop-opacity="1" stop-color="rgb(14.622498%, 14.222717%, 14.222717%)" offset="0.726562"/><stop stop-opacity="1" stop-color="rgb(14.970398%, 14.570618%, 14.570618%)" offset="0.757812"/><stop stop-opacity="1" stop-color="rgb(15.272522%, 14.872742%, 14.872742%)" offset="0.785156"/><stop stop-opacity="1" stop-color="rgb(15.550232%, 15.150452%, 15.150452%)" offset="0.808594"/><stop stop-opacity="1" stop-color="rgb(15.805054%, 15.405273%, 15.405273%)" offset="0.832031"/><stop stop-opacity="1" stop-color="rgb(16.014099%, 15.612793%, 15.612793%)" offset="0.851562"/><stop stop-opacity="1" stop-color="rgb(16.291809%, 15.890503%, 15.890503%)" offset="0.867188"/><stop stop-opacity="1" stop-color="rgb(16.616821%, 16.215515%, 16.215515%)" offset="0.898438"/><stop stop-opacity="1" stop-color="rgb(16.867065%, 16.488647%, 16.488647%)" offset="0.921875"/><stop stop-opacity="1" stop-color="rgb(17.03949%, 16.720581%, 16.720581%)" offset="0.941406"/><stop stop-opacity="1" stop-color="rgb(17.225647%, 17.01355%, 17.01355%)" offset="0.953125"/><stop stop-opacity="1" stop-color="rgb(17.474365%, 17.404175%, 17.404175%)" offset="0.976562"/><stop stop-opacity="1" stop-color="rgb(17.599487%, 17.599487%, 17.599487%)" offset="1"/></radialGradient><clipPath id="13d726fbd0"><path d="M 16 19 L 25 19 L 25 28 L 16 28 Z M 16 19 " clip-rule="nonzero"/></clipPath><clipPath id="9c576d9255"><path d="M 24.542969 23.117188 C 24.542969 23.378906 24.515625 23.640625 24.464844 23.898438 C 24.414062 24.15625 24.335938 24.40625 24.238281 24.648438 C 24.136719 24.890625 24.011719 25.121094 23.867188 25.339844 C 23.722656 25.558594 23.554688 25.761719 23.371094 25.945312 C 23.183594 26.132812 22.980469 26.296875 22.761719 26.445312 C 22.546875 26.589844 22.316406 26.710938 22.070312 26.8125 C 21.828125 26.914062 21.578125 26.988281 21.320312 27.039062 C 21.0625 27.09375 20.804688 27.117188 20.542969 27.117188 C 20.277344 27.117188 20.019531 27.09375 19.761719 27.039062 C 19.503906 26.988281 19.253906 26.914062 19.011719 26.8125 C 18.769531 26.710938 18.539062 26.589844 18.320312 26.445312 C 18.101562 26.296875 17.898438 26.132812 17.710938 25.945312 C 17.527344 25.761719 17.359375 25.558594 17.214844 25.339844 C 17.070312 25.121094 16.945312 24.890625 16.84375 24.648438 C 16.746094 24.40625 16.667969 24.15625 16.617188 23.898438 C 16.566406 23.640625 16.542969 23.378906 16.542969 23.117188 C 16.542969 22.855469 16.566406 22.59375 16.617188 22.335938 C 16.667969 22.078125 16.746094 21.828125 16.84375 21.585938 C 16.945312 21.34375 17.070312 21.113281 17.214844 20.894531 C 17.359375 20.675781 17.527344 20.476562 17.710938 20.289062 C 17.898438 20.101562 18.101562 19.9375 18.320312 19.792969 C 18.539062 19.644531 18.769531 19.523438 19.011719 19.421875 C 19.253906 19.320312 19.503906 19.246094 19.761719 19.195312 C 20.019531 19.144531 20.277344 19.117188 20.542969 19.117188 C 20.804688 19.117188 21.0625 19.144531 21.320312 19.195312 C 21.578125 19.246094 21.828125 19.320312 22.070312 19.421875 C 22.316406 19.523438 22.546875 19.644531 22.761719 19.792969 C 22.980469 19.9375 23.183594 20.101562 23.371094 20.289062 C 23.554688 20.476562 23.722656 20.675781 23.867188 20.894531 C 24.011719 21.113281 24.136719 21.34375 24.238281 21.585938 C 24.335938 21.828125 24.414062 22.078125 24.464844 22.335938 C 24.515625 22.59375 24.542969 22.855469 24.542969 23.117188 Z M 24.542969 23.117188 " clip-rule="nonzero"/></clipPath><radialGradient gradientTransform="matrix(1, 0, 0, -1, -0.117647, 60.117655)" gradientUnits="userSpaceOnUse" r="4" cx="20.663531" id="a7a5887eef" cy="37.000003" fx="20.663531" fy="37.000003"><stop stop-opacity="1" stop-color="rgb(8.753967%, 7.984924%, 7.984924%)" offset="0"/><stop stop-opacity="1" stop-color="rgb(9.054565%, 8.345032%, 8.345032%)" offset="0.0625"/><stop stop-opacity="1" stop-color="rgb(9.335327%, 8.682251%, 8.682251%)" offset="0.121094"/><stop stop-opacity="1" stop-color="rgb(9.596252%, 8.996582%, 8.996582%)" offset="0.175781"/><stop stop-opacity="1" stop-color="rgb(9.838867%, 9.288025%, 9.288025%)" offset="0.226562"/><stop stop-opacity="1" stop-color="rgb(10.063171%, 9.555054%, 9.555054%)" offset="0.273438"/><stop stop-opacity="1" stop-color="rgb(10.266113%, 9.799194%, 9.799194%)" offset="0.316406"/><stop stop-opacity="1" stop-color="rgb(10.4599%, 10.032654%, 10.032654%)" offset="0.355469"/><stop stop-opacity="1" stop-color="rgb(10.736084%, 10.331726%, 10.331726%)" offset="0.394531"/><stop stop-opacity="1" stop-color="rgb(11.00769%, 10.60791%, 10.60791%)" offset="0.429688"/><stop stop-opacity="1" stop-color="rgb(11.2854%, 10.88562%, 10.88562%)" offset="0.445312"/><stop stop-opacity="1" stop-color="rgb(11.656189%, 11.256409%, 11.256409%)" offset="0.476562"/><stop stop-opacity="1" stop-color="rgb(12.004089%, 11.604309%, 11.604309%)" offset="0.507812"/><stop stop-opacity="1" stop-color="rgb(12.329102%, 11.929321%, 11.929321%)" offset="0.535156"/><stop stop-opacity="1" stop-color="rgb(12.654114%, 12.252808%, 12.252808%)" offset="0.5625"/><stop stop-opacity="1" stop-color="rgb(12.954712%, 12.554932%, 12.554932%)" offset="0.589844"/><stop stop-opacity="1" stop-color="rgb(13.232422%, 12.832642%, 12.832642%)" offset="0.613281"/><stop stop-opacity="1" stop-color="rgb(13.487244%, 13.087463%, 13.087463%)" offset="0.636719"/><stop stop-opacity="1" stop-color="rgb(13.719177%, 13.319397%, 13.319397%)" offset="0.65625"/><stop stop-opacity="1" stop-color="rgb(13.951111%, 13.551331%, 13.551331%)" offset="0.675781"/><stop stop-opacity="1" stop-color="rgb(14.160156%, 13.760376%, 13.760376%)" offset="0.695312"/><stop stop-opacity="1" stop-color="rgb(14.344788%, 13.945007%, 13.945007%)" offset="0.710938"/><stop stop-opacity="1" stop-color="rgb(14.622498%, 14.222717%, 14.222717%)" offset="0.726562"/><stop stop-opacity="1" stop-color="rgb(14.970398%, 14.570618%, 14.570618%)" offset="0.757812"/><stop stop-opacity="1" stop-color="rgb(15.272522%, 14.872742%, 14.872742%)" offset="0.785156"/><stop stop-opacity="1" stop-color="rgb(15.550232%, 15.150452%, 15.150452%)" offset="0.808594"/><stop stop-opacity="1" stop-color="rgb(15.805054%, 15.405273%, 15.405273%)" offset="0.832031"/><stop stop-opacity="1" stop-color="rgb(16.014099%, 15.612793%, 15.612793%)" offset="0.851562"/><stop stop-opacity="1" stop-color="rgb(16.291809%, 15.890503%, 15.890503%)" offset="0.867188"/><stop stop-opacity="1" stop-color="rgb(16.616821%, 16.215515%, 16.215515%)" offset="0.898438"/><stop stop-opacity="1" stop-color="rgb(16.867065%, 16.488647%, 16.488647%)" offset="0.921875"/><stop stop-opacity="1" stop-color="rgb(17.03949%, 16.720581%, 16.720581%)" offset="0.941406"/><stop stop-opacity="1" stop-color="rgb(17.225647%, 17.01355%, 17.01355%)" offset="0.953125"/><stop stop-opacity="1" stop-color="rgb(17.474365%, 17.404175%, 17.404175%)" offset="0.976562"/><stop stop-opacity="1" stop-color="rgb(17.599487%, 17.599487%, 17.599487%)" offset="1"/></radialGradient></defs><path fill="#f5db48" d="M 30 0 C 46.566406 0 60 13.433594 60 30 C 60 46.566406 46.566406 60 30 60 C 13.433594 60 0 46.566406 0 30 C 0 13.433594 13.433594 0 30 0 Z M 30 0 " fill-opacity="1" fill-rule="nonzero"/><g clip-path="url(#5feadcbbea)"><g clip-path="url(#99118de480)"><path fill="url(#0ad27145ef)" d="M 35.457031 27.117188 L 35.457031 19.117188 L 43.457031 19.117188 L 43.457031 27.117188 Z M 35.457031 27.117188 " fill-rule="nonzero"/></g></g><g clip-path="url(#13d726fbd0)"><g clip-path="url(#9c576d9255)"><path fill="url(#a7a5887eef)" d="M 16.542969 27.117188 L 16.542969 19.117188 L 24.542969 19.117188 L 24.542969 27.117188 Z M 16.542969 27.117188 " fill-rule="nonzero"/></g></g><path fill="#5d3f3f" d="M 43.976562 47.777344 C 43.433594 47.777344 42.953125 47.410156 42.835938 46.859375 C 41.445312 40.8125 36.058594 36.421875 30.011719 36.421875 C 23.964844 36.421875 18.566406 40.8125 17.1875 46.859375 C 17.046875 47.492188 16.410156 47.882812 15.777344 47.742188 C 15.140625 47.601562 14.742188 46.964844 14.894531 46.328125 C 16.519531 39.222656 22.882812 34.058594 30.011719 34.058594 C 37.140625 34.058594 43.507812 39.222656 45.128906 46.328125 C 45.269531 46.964844 44.882812 47.589844 44.246094 47.742188 C 44.152344 47.765625 44.058594 47.777344 43.976562 47.777344 Z M 43.976562 47.777344 " fill-opacity="1" fill-rule="nonzero"/></svg>