<svg xmlns="http://www.w3.org/2000/svg" xmlns:xlink="http://www.w3.org/1999/xlink" width="80" zoomAndPan="magnify" viewBox="0 0 60 60" height="80" preserveAspectRatio="xMidYMid meet" version="1.0"><path fill="#f5db48" d="M 30 0 C 46.566406 0 60 13.433594 60 30 C 60 46.566406 46.566406 60 30 60 C 13.433594 60 0 46.566406 0 30 C 0 13.433594 13.433594 0 30 0 Z M 30 0 " fill-opacity="1" fill-rule="nonzero"/><path fill="#5d3f3f" d="M 48.53125 26.210938 C 47.882812 26.210938 47.351562 25.683594 47.351562 25.035156 C 47.351562 22.035156 44.917969 19.589844 41.90625 19.589844 C 38.894531 19.589844 36.46875 22.023438 36.46875 25.035156 C 36.46875 25.683594 35.941406 26.210938 35.292969 26.210938 C 34.648438 26.210938 34.117188 25.683594 34.117188 25.035156 C 34.117188 20.742188 37.613281 17.234375 41.917969 17.234375 C 46.222656 17.234375 49.71875 20.730469 49.71875 25.035156 C 49.707031 25.683594 49.175781 26.210938 48.53125 26.210938 Z M 48.53125 26.210938 " fill-opacity="1" fill-rule="nonzero"/><path fill="#5d3f3f" d="M 24.707031 26.210938 C 24.058594 26.210938 23.53125 25.683594 23.53125 25.035156 C 23.53125 22.035156 21.09375 19.589844 18.082031 19.589844 C 15.070312 19.589844 12.636719 22.023438 12.636719 25.035156 C 12.636719 25.683594 12.105469 26.210938 11.457031 26.210938 C 10.8125 26.210938 10.28125 25.683594 10.28125 25.035156 C 10.28125 20.742188 13.777344 17.234375 18.082031 17.234375 C 22.386719 17.234375 25.882812 20.730469 25.882812 25.035156 C 25.882812 25.683594 25.351562 26.210938 24.707031 26.210938 Z M 24.707031 26.210938 " fill-opacity="1" fill-rule="nonzero"/><path fill="#5d3f3f" d="M 30 49.519531 C 22.859375 49.519531 16.507812 44.351562 14.882812 37.246094 C 14.742188 36.613281 15.128906 35.988281 15.765625 35.835938 C 16.398438 35.695312 17.023438 36.082031 17.175781 36.71875 C 18.566406 42.765625 23.953125 47.152344 30 47.152344 C 36.046875 47.152344 41.445312 42.765625 42.824219 36.71875 C 42.964844 36.082031 43.601562 35.695312 44.234375 35.835938 C 44.871094 35.976562 45.269531 36.613281 45.117188 37.246094 C 43.492188 44.351562 37.140625 49.519531 30 49.519531 Z M 30 49.519531 " fill-opacity="1" fill-rule="nonzero"/></svg>